<?xml version="1.0" encoding="UTF-8" standalone="no"?>
<!-- Creator: CorelDRAW X7 -->

<svg
   xmlns:dc="http://purl.org/dc/elements/1.1/"
   xmlns:cc="http://creativecommons.org/ns#"
   xmlns:rdf="http://www.w3.org/1999/02/22-rdf-syntax-ns#"
   xmlns:svg="http://www.w3.org/2000/svg"
   xmlns="http://www.w3.org/2000/svg"
   xmlns:sodipodi="http://sodipodi.sourceforge.net/DTD/sodipodi-0.dtd"
   xmlns:inkscape="http://www.inkscape.org/namespaces/inkscape"
   xml:space="preserve"
   width="240.07498mm"
   height="122.51249mm"
   version="1.1"
   style="clip-rule:evenodd;fill-rule:evenodd;image-rendering:optimizeQuality;shape-rendering:geometricPrecision;text-rendering:geometricPrecision"
   viewBox="0 0 24007.498 12251.249"
   id="svg2"
   inkscape:version="0.91 r13725"
   sodipodi:docname="klim-logo.svg"
   inkscape:export-filename="/home/samsul/Dokumen/Projects/git/linux-malang.github.io/assets/images/klim-fresh.png"
   inkscape:export-xdpi="72"
   inkscape:export-ydpi="72"><metadata
     id="metadata1302"><rdf:RDF><cc:Work
         rdf:about=""><dc:format>image/svg+xml</dc:format><dc:type
           rdf:resource="http://purl.org/dc/dcmitype/StillImage" /><dc:title></dc:title></cc:Work></rdf:RDF></metadata><sodipodi:namedview
     pagecolor="#ffffff"
     bordercolor="#666666"
     borderopacity="1"
     objecttolerance="10"
     gridtolerance="10"
     guidetolerance="10"
     inkscape:pageopacity="0"
     inkscape:pageshadow="2"
     inkscape:window-width="1366"
     inkscape:window-height="713"
     id="namedview1300"
     showgrid="false"
     inkscape:zoom="0.90518016"
     inkscape:cx="425.32969"
     inkscape:cy="217.04969"
     inkscape:window-x="0"
     inkscape:window-y="27"
     inkscape:window-maximized="1"
     inkscape:current-layer="svg2"
     fit-margin-top="0"
     fit-margin-left="0"
     fit-margin-right="0"
     fit-margin-bottom="0" /><defs
     id="defs4"><style
       type="text/css"
       id="style6"><![CDATA[
    .str0 {stroke:#373435;stroke-width:105.83}
    .fil7 {fill:none}
    .fil2 {fill:#373435}
    .fil8 {fill:#1E87F7}
    .fil3 {fill:#1E87F7}
    .fil0 {fill:#EBEBEB}
    .fil1 {fill:#F7941E}
    .fil6 {fill:#373435;fill-rule:nonzero}
    .fil4 {fill:#1E87F7;fill-rule:nonzero}
    .fil5 {fill:#F7941E;fill-rule:nonzero}
   ]]></style></defs><g
     id="g6320"
     transform="translate(-3504.5589,-4136.875)"
     inkscape:export-xdpi="72"
     inkscape:export-ydpi="72"><polygon
       class="fil6"
       points="5429,15055 5088,14582 4915,14752 4915,15055 4834,15055 4834,14138 4915,14138 4915,14640 5420,14138 5533,14138 5149,14522 5533,15055 "
       id="polygon6322"
       style="fill:#373435;fill-rule:nonzero" /><path
       id="path6324"
       class="fil6"
       d="m 6416,14597 c 0,150 -38,267 -115,353 -76,86 -181,129 -314,129 -133,0 -238,-43 -314,-129 -76,-86 -114,-203 -114,-353 0,-150 38,-268 114,-354 76,-86 181,-129 314,-129 133,0 238,43 314,129 77,86 115,204 115,354 z m -429,393 c 108,0 192,-35 254,-104 61,-70 91,-167 91,-289 0,-123 -30,-220 -91,-289 -62,-70 -146,-105 -254,-105 -108,0 -193,35 -254,105 -61,69 -91,166 -91,289 0,122 30,219 91,289 61,69 146,104 254,104 z"
       inkscape:connector-curvature="0"
       style="fill:#373435;fill-rule:nonzero" /><polygon
       id="polygon6326"
       class="fil6"
       points="7435,14217 7089,15055 6996,15055 6641,14217 6649,15055 6569,15055 6569,14138 6699,14138 7043,14970 7392,14138 7512,14138 7512,15055 7432,15055 "
       style="fill:#373435;fill-rule:nonzero" /><path
       id="path6328"
       class="fil6"
       d="m 7706,14138 82,0 0,563 c 0,100 22,173 66,220 44,46 112,69 206,69 94,0 163,-23 207,-70 45,-46 67,-119 67,-219 l 0,-563 82,0 0,587 c 0,114 -31,202 -92,263 -61,61 -149,91 -264,91 -115,0 -203,-30 -263,-91 -61,-61 -91,-150 -91,-267 l 0,-583 z"
       inkscape:connector-curvature="0"
       style="fill:#373435;fill-rule:nonzero" /><polygon
       id="polygon6330"
       class="fil6"
       points="8688,14233 8688,15055 8609,15055 8609,14138 8713,14138 9283,14961 9283,14138 9362,14138 9362,15055 9253,15055 "
       style="fill:#373435;fill-rule:nonzero" /><polygon
       id="polygon6332"
       class="fil6"
       points="9561,15055 9561,14138 9642,14138 9642,15055 "
       style="fill:#373435;fill-rule:nonzero" /><polygon
       id="polygon6334"
       class="fil6"
       points="10061,15055 10061,14222 9746,14222 9746,14138 10457,14138 10457,14222 10142,14222 10142,15055 "
       style="fill:#373435;fill-rule:nonzero" /><path
       id="path6336"
       class="fil6"
       d="m 10615,14683 374,0 -186,-468 -188,468 z m -235,372 376,-917 94,0 371,917 -82,0 -114,-283 -446,0 -115,283 -84,0 z"
       inkscape:connector-curvature="0"
       style="fill:#373435;fill-rule:nonzero" /><path
       id="path6338"
       class="fil6"
       d="m 11297,14753 83,0 0,5 c 0,70 23,126 70,168 47,42 110,63 188,63 78,0 139,-17 185,-51 45,-34 68,-80 68,-137 0,-44 -13,-77 -39,-100 -27,-22 -81,-42 -164,-59 l -174,-34 c -65,-13 -113,-38 -145,-76 -32,-38 -48,-89 -48,-153 0,-80 28,-145 84,-193 56,-48 131,-72 226,-72 99,0 176,25 233,75 56,50 85,119 88,207 l -81,0 c -5,-64 -28,-113 -68,-147 -41,-34 -97,-51 -169,-51 -71,0 -127,16 -168,47 -41,32 -62,75 -62,129 0,43 15,76 43,99 29,23 83,42 161,58 l 155,30 c 74,15 128,41 162,79 35,37 52,90 52,157 0,89 -29,158 -87,208 -59,49 -140,74 -244,74 -108,0 -194,-28 -256,-84 -62,-55 -93,-132 -93,-229 l 0,-13 z"
       inkscape:connector-curvature="0"
       style="fill:#373435;fill-rule:nonzero" /><path
       id="path6340"
       class="fil6"
       d="m 13199,14889 c -28,61 -69,109 -123,141 -54,33 -119,49 -193,49 -127,0 -228,-43 -303,-131 -76,-87 -114,-204 -114,-351 0,-150 38,-268 114,-354 76,-86 181,-129 314,-129 103,0 187,29 254,87 66,58 104,134 112,229 l -86,0 c -13,-73 -44,-129 -92,-168 -48,-38 -112,-58 -193,-58 -105,0 -188,35 -249,105 -61,70 -92,166 -92,288 0,120 31,216 92,287 60,71 142,106 244,106 86,0 158,-28 218,-83 59,-56 89,-123 89,-201 l 0,-46 -256,0 0,-80 338,0 0,475 -65,0 -9,-166 z"
       inkscape:connector-curvature="0"
       style="fill:#373435;fill-rule:nonzero" /><polygon
       id="polygon6342"
       class="fil6"
       points="13523,14233 13523,15055 13444,15055 13444,14138 13547,14138 14118,14961 14118,14138 14197,14138 14197,15055 14088,15055 "
       style="fill:#373435;fill-rule:nonzero" /><path
       id="path6344"
       class="fil6"
       d="m 14391,14138 82,0 0,563 c 0,100 22,173 66,220 44,46 112,69 206,69 94,0 163,-23 207,-70 44,-46 66,-119 66,-219 l 0,-563 83,0 0,587 c 0,114 -31,202 -92,263 -61,61 -149,91 -264,91 -115,0 -204,-30 -264,-91 -60,-61 -90,-150 -90,-267 l 0,-583 z"
       inkscape:connector-curvature="0"
       style="fill:#373435;fill-rule:nonzero" /><polygon
       id="polygon6346"
       class="fil6"
       points="15250,15173 15188,15173 15506,14114 15568,14114 "
       style="fill:#373435;fill-rule:nonzero" /><polygon
       id="polygon6348"
       class="fil6"
       points="15689,14138 15689,14969 16201,14969 16201,15055 15607,15055 15607,14138 "
       style="fill:#373435;fill-rule:nonzero" /><polygon
       id="polygon6350"
       class="fil6"
       points="16335,15055 16335,14138 16416,14138 16416,15055 "
       style="fill:#373435;fill-rule:nonzero" /><polygon
       id="polygon6352"
       class="fil6"
       points="16693,14233 16693,15055 16614,15055 16614,14138 16717,14138 17287,14961 17287,14138 17367,14138 17367,15055 17258,15055 "
       style="fill:#373435;fill-rule:nonzero" /><path
       id="path6354"
       class="fil6"
       d="m 17561,14138 82,0 0,563 c 0,100 22,173 66,220 43,46 112,69 206,69 94,0 163,-23 207,-70 44,-46 66,-119 66,-219 l 0,-563 83,0 0,587 c 0,114 -31,202 -92,263 -61,61 -149,91 -264,91 -116,0 -204,-30 -264,-91 -60,-61 -90,-150 -90,-267 l 0,-583 z"
       inkscape:connector-curvature="0"
       style="fill:#373435;fill-rule:nonzero" /><polygon
       id="polygon6356"
       class="fil6"
       points="19143,15055 19037,15055 18761,14647 18482,15055 18375,15055 18710,14584 18399,14138 18503,14138 18764,14522 19026,14138 19127,14138 18810,14583 "
       style="fill:#373435;fill-rule:nonzero" /><polygon
       id="polygon6358"
       class="fil6"
       points="20480,14217 20134,15055 20040,15055 19686,14217 19694,15055 19614,15055 19614,14138 19744,14138 20088,14970 20437,14138 20557,14138 20557,15055 20476,15055 "
       style="fill:#373435;fill-rule:nonzero" /><path
       id="path6360"
       class="fil6"
       d="m 20897,14683 374,0 -186,-468 -188,468 z m -234,372 375,-917 94,0 372,917 -82,0 -115,-283 -446,0 -115,283 -83,0 z"
       inkscape:connector-curvature="0"
       style="fill:#373435;fill-rule:nonzero" /><polygon
       id="polygon6362"
       class="fil6"
       points="21691,14138 21691,14969 22204,14969 22204,15055 21610,15055 21610,14138 "
       style="fill:#373435;fill-rule:nonzero" /><path
       id="path6364"
       class="fil6"
       d="m 22479,14683 374,0 -186,-468 -188,468 z m -234,372 376,-917 93,0 372,917 -82,0 -115,-283 -446,0 -115,283 -83,0 z"
       inkscape:connector-curvature="0"
       style="fill:#373435;fill-rule:nonzero" /><polygon
       id="polygon6366"
       class="fil6"
       points="23271,14233 23271,15055 23192,15055 23192,14138 23296,14138 23866,14961 23866,14138 23945,14138 23945,15055 23836,15055 "
       style="fill:#373435;fill-rule:nonzero" /><path
       id="path6368"
       class="fil6"
       d="m 24831,14889 c -28,61 -69,109 -123,141 -54,33 -118,49 -193,49 -126,0 -227,-43 -303,-131 -76,-87 -114,-204 -114,-351 0,-150 38,-268 114,-354 77,-86 181,-129 315,-129 102,0 186,29 253,87 66,58 104,134 112,229 l -86,0 c -13,-73 -43,-129 -92,-168 -48,-38 -112,-58 -192,-58 -106,0 -189,35 -250,105 -61,70 -91,166 -91,288 0,120 30,216 91,287 60,71 142,106 244,106 86,0 159,-28 218,-83 59,-56 89,-123 89,-201 l 0,-46 -256,0 0,-80 339,0 0,475 -66,0 -9,-166 z"
       inkscape:connector-curvature="0"
       style="fill:#373435;fill-rule:nonzero" /><path
       class="fil2"
       d="m 18390,8281 0,4326 0,269 152,0 c 164,9 158,56 158,297 l 270,18 c 85,21 100,105 93,196 -7,92 -25,76 96,75 437,-6 363,7 363,395 l 107,0 0,-4274 c 32,36 428,1224 461,1324 l 1002,2950 1079,0 c 34,-63 316,-925 368,-1064 138,-367 277,-833 412,-1201 l 412,-1201 c 32,-95 63,-175 94,-270 l 177,-517 c 10,-22 3,-10 11,-21 l 0,4274 1250,0 0,-5577 c -271,5 -541,-27 -803,-60 -126,-17 -269,-28 -382,17 -101,40 -125,97 -162,159 -112,185 -212,461 -303,668 l -787,1789 c -86,198 -171,395 -260,594 -86,190 -186,404 -259,594 l -615,0 c -161,-392 -345,-800 -522,-1195 -177,-397 -344,-796 -520,-1190 -177,-396 -342,-796 -520,-1189 -114,-253 -255,-288 -579,-248 -272,33 -513,58 -793,62 z"
       id="path6370"
       inkscape:connector-curvature="0"
       style="fill:#373435" /><path
       class="fil2"
       d="m 6545,13075 c -25,-26 -69,-76 -83,-105 73,-44 279,-21 132,-305 -176,-337 -666,-443 -855,-747 -155,-249 -105,-602 -2,-867 113,-291 209,-434 422,-630 -7,154 -194,487 -254,627 -78,183 -185,528 -22,694 38,-63 47,-217 65,-300 131,-625 587,-993 662,-1836 292,8 334,382 761,237 127,-44 219,-120 352,-172 141,-55 233,-118 314,-206 l 23,35 c 2,4 8,27 10,33 7,26 13,47 21,74 200,679 362,829 618,1391 38,85 75,166 106,257 35,103 47,182 73,292 l 99,10 c 50,-294 33,-476 -94,-711 -94,-176 -298,-352 -354,-494 256,61 371,279 490,475 182,299 173,394 174,786 100,91 418,180 416,402 l -137,22 c -24,-26 -32,-56 -65,-92 -75,-81 -176,-132 -290,-168 -385,-122 -356,53 -424,127 l -33,-34 c -21,-21 -6,-10 -31,-24 -64,52 -111,83 -153,159 -127,230 -86,521 -145,795 -67,310 -298,739 -79,985 175,197 468,203 709,116 150,-54 9,-55 266,-55 416,0 833,0 1249,0 -8,-30 -31,-52 -50,-77 l -177,-240 c -34,-46 -217,-271 -221,-324 44,-10 112,-62 142,-93 178,-184 -68,-389 -132,-473 -150,-195 -80,-543 -363,-609 l 53,-471 c 1,-62 9,-61 4,-109 -18,-172 -6,-151 -69,-338 -47,-139 -135,-323 -211,-450 -113,-188 -201,-297 -339,-463 -214,-253 -523,-567 -576,-898 -13,-78 -10,-174 -26,-242 65,-43 172,-170 238,-232 12,-12 17,-15 28,-25 l 33,-31 c 150,-136 366,-375 480,-471 1,-2 4,-4 6,-5 97,-82 320,-314 414,-408 l 662,-641 c 24,-24 44,-41 62,-67 l -1539,-1 c -88,0 -92,35 -200,142 -16,17 -26,26 -42,43 l -36,39 c -2,2 -4,4 -5,6 l -168,174 c -46,47 -131,142 -179,174 -83,-124 -243,-217 -391,-260 -159,-48 -398,-70 -593,-41 -363,53 -636,196 -761,553 -56,162 -70,368 -71,582 0,68 11,87 12,148 l -2,502 c -42,384 -93,453 -311,672 -45,45 -121,131 -168,163 l 0,-2896 -1175,0 0,5139 c -110,26 -232,94 -263,219 -34,137 9,255 7,444 -2,124 -70,326 -46,420 27,109 165,178 302,178 l 0,267 1087,3 c 192,26 414,111 662,-80 31,-24 25,-18 47,-49 102,-141 37,15 84,-161 34,-129 -13,-257 -76,-364 -17,-31 -50,-99 -74,-120 z m 742,-4243 c 34,20 214,79 257,75 13,-449 228,-308 232,-136 3,115 -51,150 -77,226 56,22 166,81 224,83 241,-234 152,-625 -91,-763 -244,-139 -570,35 -545,515 z m -488,205 24,-23 c -39,-114 -141,-222 -32,-341 114,13 61,137 139,230 l 189,-76 c 9,-251 -179,-623 -453,-448 -94,60 -151,196 -146,360 7,181 73,264 156,349 l 123,-51 z"
       id="path6372"
       inkscape:connector-curvature="0"
       style="fill:#373435" /><path
       class="fil8"
       d="m 15314,10181 c -84,0 -175,23 -247,31 -82,8 -173,17 -244,34 -20,84 -32,168 -49,260 l -97,524 c -16,74 -50,185 -36,252 201,0 464,231 630,235 13,157 171,241 171,278 l -10,96 c -108,0 -247,21 -342,43 0,141 40,164 -119,170 -108,4 -73,23 -73,246 -33,1 -84,9 -126,14 -151,18 -109,4 -109,275 -200,0 -936,0 -1047,53 0,47 -1,93 0,139 2,174 -20,107 -181,118 -139,10 -120,24 -97,299 l -278,11 c -47,2 -39,9 -85,10 -19,83 -11,181 -11,268 -135,0 -345,-6 -459,21 -4,44 -11,24 -11,64 0,44 8,17 7,52 -1,35 -35,162 25,162 l 3183,0 c 37,0 41,-44 52,-77 33,-92 66,-197 109,-287 -185,-43 -219,-322 -94,-446 165,-166 467,-57 467,158 0,147 -32,221 -160,288 5,54 46,133 63,183 17,54 61,133 65,181 l 3237,0 0,-278 c -61,-14 -371,-21 -460,-21 -19,-83 -2,-185 -21,-268 -73,0 -98,-11 -171,-11 -64,1 -128,1 -192,1 7,-90 43,-209 0,-299 l -267,-11 c 0,-56 -12,-89 -11,-161 3,-127 10,-116 -225,-117 -67,0 -88,-11 -159,-11 l -331,-10 c -56,-3 -116,3 -171,0 -51,-3 -113,-18 -161,-22 l 0,-256 c -75,0 -174,-7 -235,-22 l 0,-235 c -49,-1 -132,-17 -181,-21 0,-71 -11,-98 -11,-160 l -302,-40 c -54,-9 -72,-17 -72,-67 0,-44 119,-82 172,-170 75,-125 11,-109 159,-183 l 346,-167 c 187,-86 201,150 33,-681 -97,-482 23,-361 -371,-420 -171,-25 -169,-37 -168,-217 1,-198 -22,-370 -21,-566 0,-82 -11,-116 -11,-192 1,-143 -11,-245 -10,-385 0,-75 -12,-104 -11,-182 l -21,-759 c 0,-79 -12,-112 -11,-192 1,-180 -17,-387 -22,-566 -2,-66 4,-138 0,-203 -3,-59 -8,-109 -10,-182 -5,-164 -51,-339 -125,-473 -17,-31 -58,-90 -80,-112 -32,-32 -88,-55 -137,-67 0,-53 -10,-52 -11,-106 -5,-172 -18,-339 -93,-495 -28,-59 -83,-88 -88,-157 -167,111 -228,405 -225,630 1,74 13,103 -34,136 -114,82 -83,24 -175,178 -120,202 -98,358 -128,556 -15,103 5,227 -11,331 l -57,1674 c 0,67 -12,89 -11,159 0,57 1,115 0,172 l -15,326 c -16,105 5,229 -11,332 l -17,335 z"
       id="path6374"
       inkscape:connector-curvature="0"
       style="fill:#1e87f7" /><path
       class="fil2"
       d="m 9269,8472 0,1752 263,388 c 29,54 52,93 79,146 199,400 246,579 194,996 -10,75 -24,147 -24,222 156,104 172,112 229,338 60,240 58,208 196,371 150,176 185,428 -51,552 31,59 70,104 110,157 21,28 32,49 54,75 l 174,232 c 21,30 31,46 53,75 34,46 38,70 69,70 l 1805,0 c 0,-283 -44,-379 181,-385 l 226,2 c 48,0 49,7 61,-24 29,-79 -45,-193 67,-243 31,-14 231,-23 287,-23 0,-206 -21,-302 192,-299 127,2 112,11 99,-110 -5,-41 5,-46 8,-82 l -3012,0 0,-5450 c -40,11 -56,40 -83,67 -29,29 -51,51 -80,80 -27,28 -45,48 -76,74 l -869,851 c -29,29 -152,132 -152,168 z"
       id="path6376"
       inkscape:connector-curvature="0"
       style="fill:#373435" /><path
       class="fil1"
       d="m 18264,8403 c 292,-6 543,-33 826,-71 338,-46 485,-6 604,281 185,446 357,900 542,1349 184,447 357,900 542,1349 184,448 375,911 544,1355 l 640,0 c 77,-214 181,-457 270,-673 93,-225 182,-449 272,-673 l 819,-2029 c 96,-235 200,-548 316,-759 39,-69 64,-134 169,-179 118,-51 267,-39 398,-20 274,38 555,74 837,69 452,-16 866,-84 1197,-444 91,-99 162,-209 207,-355 133,-437 54,-1005 -265,-1315 -85,-82 -217,-178 -371,-178 2,2 6,1 8,4 l 47,21 c 80,32 98,42 166,98 212,173 300,466 324,775 7,89 -25,266 -42,329 -60,235 -197,403 -400,498 -42,20 -89,40 -127,55 -153,60 -388,93 -610,74 -750,-67 -1494,-618 -2006,84 l -76,110 -208,526 c -72,178 -137,346 -207,525 l -208,525 c -36,81 -64,173 -100,254 l -415,1051 c -37,93 -69,168 -104,263 l -181,458 c -16,44 -5,34 -35,58 l -99,-256 c -35,-93 -68,-171 -103,-263 -33,-87 -68,-171 -103,-264 l -614,-1561 c -25,-47 -34,-72 -53,-125 -90,-249 -365,-883 -434,-1114 -19,-63 -64,-117 -100,-170 -609,-897 -1650,179 -2614,-172 -165,-60 -310,-138 -418,-284 -221,-295 -197,-865 -13,-1169 22,-37 46,-69 73,-103 75,-96 144,-150 253,-197 l 62,-30 c -269,0 -489,277 -590,522 -112,271 -138,671 -38,986 133,418 544,650 924,739 225,53 308,32 494,46 z"
       id="path6378"
       inkscape:connector-curvature="0"
       style="fill:#f7941e" /><path
       class="fil1"
       d="m 6823,9024 -24,23 c -64,60 -135,111 -192,169 -161,165 30,208 237,377 65,52 135,109 233,141 222,72 403,-55 564,-135 82,-40 172,-81 247,-127 85,-52 99,-80 137,-140 29,-46 2,-6 49,-27 -10,-27 -124,-164 -242,-219 -109,-51 -221,-77 -328,-132 -443,-226 -559,27 -681,70 z m 1813,2944 c -185,93 -156,558 -198,792 -42,231 -213,590 -166,822 72,348 535,350 820,152 83,-57 210,-204 413,-346 531,-370 853,-242 474,-690 -107,-126 -94,-177 -147,-355 -134,-457 -476,-128 -593,-76 -117,52 -292,82 -417,17 -113,-59 -132,-190 -186,-316 z m -3196,-3 c -281,75 -107,258 -550,418 -113,41 -252,88 -255,224 -4,163 60,255 19,450 -105,494 -16,414 426,460 417,43 447,116 760,212 285,87 582,120 730,-104 158,-240 -116,-527 -223,-649 -223,-255 -219,-260 -402,-570 -98,-164 -257,-507 -505,-441 z"
       id="path6380"
       inkscape:connector-curvature="0"
       style="fill:#f7941e" /><path
       class="fil1"
       d="m 12641,12581 886,0 0,-855 c 0,-25 -7,-32 -32,-32 l -854,0 0,887 z m -995,-855 0,855 887,0 0,-887 -855,0 c -25,0 -32,7 -32,32 z m -999,855 887,0 0,-855 c 0,-25 -8,-32 -32,-32 l -855,0 0,887 z m 1,-997 887,0 0,-855 c 0,-25 -8,-32 -32,-32 l -855,0 0,887 z"
       id="path6382"
       inkscape:connector-curvature="0"
       style="fill:#f7941e" /></g><rect
     style="opacity:1;fill:none;fill-opacity:1;stroke:none;stroke-width:141.1111145;stroke-miterlimit:1.10000002;stroke-dasharray:none"
     id="rect6384"
     width="24007.5"
     height="12251.25"
     x="0"
     y="-3.6379788e-12"
     inkscape:export-xdpi="72"
     inkscape:export-ydpi="72" /></svg>